# xmcd CD database file
#
# Track frame offsets:
#	150
#	15857
#	28319
#	40713
#	53993
#	71966
#	89287
#	107777
#	125483
#	136411
#	147192
#	163882
#	187631
#
# Disc length: 2686 seconds
#
# Revision: 0
# Processed by: cddbd v1.5.1PL0 Copyright (c) Steve Scherf et al.
# Submitted via: CDex 1.51
#
DISCID=b10a7c0d
DTITLE=Bootleg Blues - Bootleg Blues
DYEAR=2003
DGENRE=Blues
TTITLE0=Y and R
TTITLE1=Bottle Up And Go
TTITLE2=Diamond Ring
TTITLE3=Women Be Wise
TTITLE4=On A Monday
TTITLE5=Come On In My Kitchen
TTITLE6=Am I Wrong
TTITLE7=Can't Be Satisfied
TTITLE8=Nobody's Fault But Mine
TTITLE9=Crazy About You
TTITLE10=Sportin' Life Blues
TTITLE11=Season Of The Witch
TTITLE12=Key To The Highway
EXTD=YEAR: 2003
EXTT0=
EXTT1=
EXTT2=
EXTT3=
EXTT4=
EXTT5=
EXTT6=
EXTT7=
EXTT8=
EXTT9=
EXTT10=
EXTT11=
EXTT12=
PLAYORDER=
